<?xml version="1.0" encoding="utf-8"?>
<!-- Generator: Adobe Illustrator 27.4.0, SVG Export Plug-In . SVG Version: 6.00 Build 0)  -->
<svg version="1.1" id="Layer_1" xmlns="http://www.w3.org/2000/svg" xmlns:xlink="http://www.w3.org/1999/xlink" x="0px" y="0px"
	 viewBox="0 0 800 800" style="enable-background:new 0 0 800 800;" xml:space="preserve">
<path d="M69.44,546.76c109.77,0,328.49,0,328.49,0S149.05,296.1,126.66,274.01c-4.04-3.99-3.39-6.4,0.32-10.1
	c45.5-45.32,141.42-141.86,141.42-141.86l279.59,278.51v-330c0,0,147.8,147.71,169.42,168.36c9.6,9.16,12.97,18.85,12.92,32.19
	c-0.5,145.3-0.28,447.27,0.18,452.92c0.35,4.22-1.36,5.5-5.23,5.26c-2.61-0.16-312.87-0.01-465.38,0.15
	c-6.45,0.01-10.95-2.04-15.45-6.59c-25.03-25.3-50.42-50.24-75.6-75.4C136.72,615.34,71.16,549.07,69.44,546.76z"/>
</svg>
